<?xml version="1.0" standalone="no"?>
<!DOCTYPE svg PUBLIC "-//W3C//DTD SVG 20010904//EN"
 "http://www.w3.org/TR/2001/REC-SVG-20010904/DTD/svg10.dtd">
<svg version="1.0" xmlns="http://www.w3.org/2000/svg"
 width="736.000000pt" height="552.000000pt" viewBox="0 0 736.000000 552.000000"
 preserveAspectRatio="xMidYMid meet">

<g transform="translate(0.000000,552.000000) scale(0.100000,-0.100000)"
fill="" stroke="none">
<path d="M5593 2728 c-9 -12 -85 -389 -87 -433 -1 -19 6 -20 133 -23 l133 -3
-6 -102 c-5 -74 -3 -121 8 -171 8 -38 13 -73 10 -78 -3 -4 -24 -8 -46 -8 -29
0 -49 -7 -64 -21 -29 -27 -66 -19 -84 18 -7 16 -16 69 -19 118 l-6 90 -100 0
-100 0 -3 -122 -3 -123 -52 0 c-50 0 -54 2 -93 48 -75 87 -188 131 -394 155
l-105 12 -3 129 c-2 113 0 134 18 171 23 47 18 76 -18 109 -17 14 -29 17 -59
11 -61 -13 -855 -17 -867 -5 -17 17 -72 11 -100 -11 -20 -16 -26 -29 -26 -59
0 -21 6 -43 15 -50 15 -12 21 -50 9 -50 -4 0 -29 20 -55 45 -37 35 -56 45 -81
45 -27 0 -43 -9 -78 -45 -24 -25 -48 -45 -52 -45 -13 0 -8 34 7 54 38 50 -3
126 -68 126 -18 0 -38 -5 -43 -10 -12 -12 -810 -8 -862 5 -69 16 -120 -51 -88
-114 24 -45 23 -349 -1 -402 l-16 -37 -151 -4 c-138 -3 -154 -5 -189 -27 -21
-13 -50 -42 -65 -64 -26 -40 -27 -45 -30 -219 l-4 -178 -29 0 c-23 0 -32 6
-40 27 -7 20 -7 29 1 31 61 21 47 122 -18 122 -16 0 -21 7 -24 32 -2 22 -10
36 -25 44 -46 22 -62 45 -56 75 7 37 -19 69 -58 69 -37 0 -46 17 -20 41 38 35
19 91 -34 101 -12 2 -21 13 -23 26 -5 34 -47 58 -78 44 -13 -7 -27 -18 -30
-26 -5 -12 -11 -13 -29 -4 -45 20 -99 -37 -76 -80 8 -15 6 -23 -9 -37 -11 -10
-20 -27 -20 -37 0 -10 -11 -23 -24 -28 -29 -11 -50 -45 -42 -67 4 -9 -4 -25
-19 -39 -18 -16 -25 -33 -25 -59 0 -33 -2 -35 -33 -35 -20 0 -41 -8 -50 -18
-21 -23 -22 -66 -2 -85 13 -13 13 -16 0 -27 -8 -7 -15 -28 -15 -47 0 -27 6
-37 30 -51 42 -24 55 -68 39 -135 -11 -53 -8 -212 6 -269 7 -26 5 -27 -36 -30
-31 -2 -44 -7 -44 -18 0 -13 135 -15 1148 -18 1090 -2 1148 -1 1145 15 -3 17
-41 18 -626 21 l-622 2 0 85 0 85 1380 0 1380 0 0 -85 0 -85 -555 0 c-548 0
-555 0 -555 -20 0 -20 7 -20 1185 -20 1178 0 1185 0 1185 20 0 18 -7 20 -75
20 l-75 0 0 125 0 125 49 0 c88 0 81 -26 81 316 l0 304 -91 0 c-81 0 -93 2
-108 22 -14 17 -27 21 -64 20 -55 -2 -57 3 -31 107 15 57 15 76 4 143 -15 93
-10 111 27 106 25 -3 29 -8 33 -47 5 -44 29 -70 31 -34 1 10 2 32 3 48 l1 30
83 3 c77 3 82 4 81 25 0 12 -19 117 -42 232 l-42 210 -226 3 c-174 2 -228 -1
-236 -10z m468 -223 c20 -104 35 -191 34 -193 -2 -2 -127 -5 -280 -8 -262 -5
-276 -4 -271 13 2 10 19 92 36 183 17 91 33 173 36 183 5 16 21 17 207 15
l201 -3 37 -190z m-3158 -65 c283 0 416 3 424 11 6 6 21 9 34 7 29 -4 37 -39
14 -58 -10 -9 -15 -31 -15 -74 l0 -62 -56 -54 c-31 -30 -60 -65 -65 -77 -9
-24 6 -83 22 -83 5 0 9 -4 9 -10 0 -17 -150 -11 -250 11 -326 69 -330 69 -372
27 -17 -17 -20 -29 -15 -74 l6 -54 -120 0 c-65 0 -119 4 -119 9 0 5 7 14 15
21 12 10 15 47 15 215 0 171 -2 204 -15 209 -20 7 -19 43 2 55 12 6 26 5 45
-5 22 -11 104 -14 441 -14z m1303 3 c230 2 433 7 450 11 24 6 33 4 37 -8 7
-19 -1 -46 -14 -46 -5 0 -9 -69 -9 -153 l0 -154 -382 -7 c-211 -3 -393 -9
-405 -12 -21 -6 -23 -3 -23 33 0 34 -7 46 -60 98 -59 58 -60 60 -60 115 0 34
-6 64 -15 76 -32 42 -2 86 40 58 19 -12 92 -14 441 -11z m-518 -197 c135 -136
149 -160 98 -171 -11 -3 -91 -9 -176 -15 -85 -5 -182 -13 -216 -16 -59 -6 -61
-6 -87 26 -15 17 -27 35 -27 40 0 12 254 270 266 270 6 0 69 -60 142 -134z
m2152 -10 c0 -19 5 -57 11 -84 10 -42 9 -65 -6 -136 -10 -48 -21 -83 -25 -79
-18 21 -31 147 -25 230 8 97 10 103 31 103 9 0 14 -11 14 -34z m-310 -261 l0
-105 -65 0 -65 0 0 105 0 105 65 0 65 0 0 -105z m-2618 48 c141 -32 180 -36
288 -36 69 0 175 5 235 11 344 35 1238 50 1420 24 215 -31 329 -99 370 -222
33 -101 19 -216 -31 -239 -44 -19 -148 -13 -277 19 -161 39 -267 49 -467 43
-190 -6 -249 5 -322 60 -143 109 -134 107 -698 117 -490 8 -535 12 -621 54
-87 41 -160 154 -124 190 23 23 43 21 227 -21z m-1364 -9 c2 -11 -4 -27 -13
-34 -18 -15 -20 -40 -2 -40 6 0 21 7 31 15 26 20 52 19 60 -2 9 -23 -6 -35
-50 -36 -46 -2 -48 -15 -8 -38 20 -10 29 -24 29 -40 0 -34 -26 -30 -50 8 -28
45 -45 42 -43 -8 1 -42 -13 -62 -39 -52 -18 7 -16 29 4 64 22 36 10 48 -26 26
-46 -27 -79 -19 -65 17 3 9 21 16 45 18 47 4 52 17 13 39 -32 17 -43 47 -23
59 19 12 36 2 49 -31 18 -43 40 -38 40 9 0 21 3 42 7 46 13 13 38 1 41 -20z
m1153 -149 c50 -45 104 -72 181 -90 77 -19 485 -38 618 -30 52 3 172 2 267 -4
193 -10 223 -19 325 -96 94 -71 131 -77 428 -79 250 -2 257 -2 375 -33 66 -17
148 -34 183 -38 43 -5 62 -11 62 -21 0 -12 -233 -14 -1590 -14 l-1590 0 0 163
c0 183 8 214 69 254 33 23 39 23 334 23 l300 0 38 -35z m3237 16 c6 -1 12 -4
12 -8 0 -5 -56 -8 -125 -8 -69 0 -125 3 -125 7 0 11 134 16 238 9z m-4573 -89
c12 -41 37 -39 46 3 6 28 7 29 9 5 2 -14 3 -31 2 -39 0 -8 9 -23 21 -33 12
-11 16 -16 9 -13 -9 5 -15 -1 -19 -14 -3 -12 -10 -21 -17 -20 -28 3 -36 -3
-36 -27 0 -24 -23 -53 -41 -54 -19 -1 -15 33 7 60 33 39 23 54 -22 33 -32 -16
-36 -16 -51 0 -27 26 -1 48 48 41 46 -8 52 8 14 38 -32 25 -34 61 -2 56 15 -2
25 -13 32 -36z m320 14 c0 -11 -13 -26 -29 -35 -33 -19 -32 -36 4 -37 45 -1
50 -4 50 -23 0 -29 -17 -35 -45 -17 -42 27 -76 16 -40 -14 17 -14 20 -56 5
-65 -19 -12 -41 17 -38 49 4 38 -17 42 -35 6 -15 -31 -52 -34 -52 -5 0 12 11
25 28 33 40 20 36 45 -7 37 -42 -8 -55 8 -19 24 18 8 29 9 37 1 15 -15 26 -12
26 5 0 11 7 14 23 10 17 -4 26 1 39 25 20 35 53 38 53 6z m4435 -35 l0 -60
-42 -3 c-57 -4 -55 -22 2 -28 35 -4 40 -7 23 -12 -28 -8 -30 -25 -3 -33 11 -3
20 -15 20 -26 0 -18 -12 -19 -419 -19 l-419 0 10 38 c10 35 6 113 -8 175 l-6
27 421 0 421 0 0 -59z m-4352 -106 c2 -9 -5 -30 -17 -46 -12 -15 -21 -31 -21
-34 0 -11 29 -5 59 12 28 17 31 17 47 1 28 -27 11 -48 -40 -48 -58 0 -65 -13
-21 -39 19 -11 35 -24 35 -29 0 -16 -64 1 -82 22 l-18 21 -6 -22 c-4 -14 -14
-23 -26 -23 -15 0 -17 3 -8 19 14 27 13 31 -9 31 -10 0 -21 7 -25 15 -4 10 1
15 15 15 15 0 19 5 14 19 -6 21 10 38 20 21 10 -16 25 -1 25 26 0 26 28 64 45
60 6 -2 12 -11 13 -21z m-478 -41 c0 -13 9 -32 20 -41 11 -10 20 -25 20 -35 0
-9 9 -20 20 -23 22 -7 24 -13 10 -35 -8 -13 -11 -12 -25 5 -15 20 -15 20 -30
1 -15 -20 -15 -20 -30 0 -15 19 -15 19 -32 -1 -34 -40 -52 -49 -68 -35 -30 25
-18 49 30 62 51 14 54 29 6 39 -40 8 -54 21 -49 45 5 29 37 28 68 -1 31 -30
57 -27 40 5 -15 28 -13 50 5 44 8 -4 15 -17 15 -30z m196 -20 c-2 -6 0 -17 4
-25 7 -10 14 -7 35 15 22 24 28 26 41 15 14 -12 12 -15 -15 -28 -44 -21 -39
-39 11 -43 31 -2 44 -8 46 -21 5 -27 -24 -31 -57 -8 -30 22 -48 15 -37 -14 3
-9 -1 -15 -9 -15 -8 0 -15 7 -15 15 0 8 -6 15 -14 15 -8 0 -16 -7 -20 -15 -3
-8 -17 -15 -31 -15 -31 0 -24 17 12 31 36 14 23 34 -23 34 -33 0 -40 4 -42 23
-3 17 1 22 19 22 12 0 31 -8 41 -17 28 -25 45 -3 23 31 -10 15 -14 33 -10 43
6 16 8 15 25 -7 11 -14 18 -30 16 -36z m4634 -179 l0 -115 -370 0 -370 0 -1
23 c-1 12 0 39 1 59 2 59 -14 80 -63 78 -102 -4 -127 -1 -127 18 0 9 15 24 33
33 28 14 88 16 465 18 l432 1 0 -115z m-4342 -10 c-3 -10 -514 -19 -530 -9 -5
3 -6 10 -2 15 8 13 535 7 532 -6z m3546 -3 c3 -5 3 -25 -1 -45 -6 -37 -6 -37
-54 -37 -37 0 -49 -4 -49 -15 0 -11 12 -15 50 -15 l50 0 0 -40 0 -40 -1740 0
-1740 0 0 23 c0 13 -6 44 -13 68 -11 37 -11 50 0 77 l13 32 1739 0 c957 0
1742 -4 1745 -8z m-3552 -84 c17 -30 17 -252 1 -290 l-13 -28 -249 0 -249 0
-13 53 c-17 68 -17 180 0 240 l14 47 248 0 c247 0 248 0 261 -22z m3624 -95
c-3 -10 -12 -47 -21 -83 -31 -127 -36 -140 -46 -140 -6 0 -9 30 -7 78 3 66 6
77 21 77 22 0 37 22 37 58 0 15 5 27 11 27 6 0 8 -8 5 -17z m487 -95 c15 -62
27 -119 27 -125 0 -10 -57 -13 -253 -13 -140 0 -256 3 -259 6 -3 3 8 59 25
125 l32 119 200 0 201 0 27 -112z m107 -9 c0 -88 -3 -120 -12 -117 -10 4 -66
190 -67 226 -1 8 13 12 39 12 l40 0 0 -121z m-4080 -44 l0 -85 -43 0 c-51 0
-60 6 -47 31 6 10 13 45 17 79 l6 60 33 0 34 0 0 -85z m3230 -1 l0 -74 -80 0
-80 0 0 75 0 74 73 3 c39 2 75 2 80 0 4 -2 7 -37 7 -78z m130 1 l0 -85 -40 0
-40 0 0 85 0 85 40 0 40 0 0 -85z m-3150 0 l0 -75 -80 0 -80 0 0 75 0 75 80 0
80 0 0 -75z"/>
<path d="M5634 1740 c-28 -11 -36 -43 -17 -69 16 -24 55 -28 73 -7 29 36 -13
93 -56 76z m42 -31 c10 -17 -23 -46 -37 -32 -7 7 -9 19 -6 27 7 18 33 21 43 5z"/>
<path d="M5617 1450 c-27 -39 8 -89 53 -75 24 7 37 51 23 74 -16 25 -59 26
-76 1z m59 -39 c-9 -14 -33 -14 -41 -1 -4 6 -1 18 6 26 11 13 14 13 27 0 8 -8
11 -19 8 -25z"/>
<path d="M2300 1315 c0 -13 14 -15 98 -13 126 4 124 22 -3 26 -81 2 -95 0 -95
-13z"/>
<path d="M2537 1324 c-13 -14 6 -24 44 -24 28 0 39 4 39 15 0 11 -11 15 -38
15 -21 0 -42 -3 -45 -6z"/>
<path d="M1430 1211 c-11 -16 -16 -32 -11 -35 9 -6 51 39 51 55 0 18 -19 8
-40 -20z"/>
<path d="M1458 1165 c-25 -33 -23 -42 12 -42 29 0 39 10 21 21 -5 3 -7 15 -4
26 7 27 -8 25 -29 -5z"/>
<path d="M910 980 c0 -18 7 -20 75 -20 68 0 75 2 75 20 0 18 -7 20 -75 20 -68
0 -75 -2 -75 -20z"/>
<path d="M3456 985 c-8 -23 9 -26 125 -23 84 2 104 6 104 18 0 23 -220 28
-229 5z"/>
<path d="M3737 994 c-16 -16 -6 -35 16 -32 12 2 22 10 22 18 0 16 -26 25 -38
14z"/>
<path d="M6265 990 c-14 -22 11 -30 96 -30 82 0 89 1 89 20 0 19 -7 20 -89 20
-50 0 -93 -4 -96 -10z"/>
</g>
</svg>
